<?xml version="1.0" standalone="no"?>
<!DOCTYPE svg PUBLIC "-//W3C//DTD SVG 20010904//EN"
 "http://www.w3.org/TR/2001/REC-SVG-20010904/DTD/svg10.dtd">
<svg version="1.0" xmlns="http://www.w3.org/2000/svg"
 width="1200.000000pt" height="630.000000pt" viewBox="0 0 1200.000000 630.000000"
 preserveAspectRatio="xMidYMid meet">

<g transform="translate(0.000000,630.000000) scale(0.100000,-0.100000)"
fill="#000000" stroke="none">
<path d="M4635 6188 c-11 -6 -28 -20 -37 -32 -17 -20 -18 -177 -18 -2699 0
-2425 1 -2680 16 -2702 19 -29 72 -48 107 -40 14 4 36 18 49 32 l23 25 3 2614
2 2614 1220 0 1220 0 2 -2614 3 -2614 23 -25 c13 -14 35 -28 49 -32 35 -8 88
11 107 40 15 22 16 277 16 2702 0 2522 -1 2679 -18 2699 -9 12 -27 27 -39 33
-31 16 -2699 15 -2728 -1z"/>
<path d="M5250 5579 c-60 -24 -60 -22 -60 -397 l0 -344 29 -29 29 -29 241 0
241 0 32 29 33 29 3 329 c2 298 1 331 -15 363 -10 19 -29 40 -43 47 -31 16
-452 17 -490 2z m340 -394 l0 -205 -100 0 -100 0 0 205 0 205 100 0 100 0 0
-205z"/>
<path d="M6260 5577 c-14 -7 -33 -28 -43 -47 -16 -32 -17 -65 -15 -363 l3
-329 33 -29 32 -29 241 0 241 0 29 29 29 29 0 342 c0 376 0 378 -62 399 -45
16 -456 14 -488 -2z m350 -392 l0 -205 -100 0 -100 0 0 205 0 205 100 0 100 0
0 -205z"/>
<path d="M3014 4970 c-12 -4 -31 -21 -43 -36 l-21 -27 0 -1041 c0 -809 3
-1047 13 -1066 7 -14 29 -33 49 -43 32 -16 40 -16 70 -4 68 28 62 -50 68 1036
l5 986 583 5 584 5 24 28 c45 52 25 134 -38 156 -38 13 -1262 14 -1294 1z"/>
<path d="M7690 4969 c-61 -24 -80 -105 -36 -156 l24 -28 584 -5 583 -5 0
-2040 c0 -1808 -2 -2040 -15 -2036 -8 2 -42 6 -75 9 -59 5 -61 6 -118 68 -41
44 -78 73 -125 96 -62 31 -73 33 -172 33 -94 0 -111 -3 -163 -27 -73 -35 -126
-76 -161 -126 -26 -39 -29 -40 -94 -44 -170 -9 -292 -137 -292 -305 0 -94 41
-179 115 -235 89 -68 96 -69 616 -66 l464 3 49 25 c62 32 114 84 146 146 l25
49 3 2292 2 2292 -29 33 -29 33 -639 2 c-403 1 -647 -2 -663 -8z m726 -4278
c54 -25 81 -54 115 -127 35 -72 60 -89 120 -80 127 19 124 19 156 -8 40 -33
48 -67 28 -111 -31 -64 -36 -65 -494 -65 -452 0 -466 2 -495 59 -9 16 -16 37
-16 46 0 32 32 77 65 91 29 12 39 12 77 -2 55 -21 106 -19 131 3 11 10 33 46
49 80 33 68 45 81 103 112 49 26 107 27 161 2z"/>
<path d="M3625 4361 c-11 -5 -29 -19 -40 -31 -19 -21 -20 -39 -23 -344 -4
-354 0 -386 48 -411 42 -22 467 -22 509 0 50 25 52 44 49 403 l-3 332 -28 27
-27 28 -233 2 c-127 1 -241 -2 -252 -6z m340 -396 l0 -200 -102 -3 -103 -3 0
199 c0 109 3 202 7 206 4 4 50 5 103 4 l95 -3 0 -200z"/>
<path d="M5245 4358 c-55 -30 -55 -25 -55 -396 l0 -344 29 -29 29 -29 241 0
241 0 32 29 33 29 3 319 c4 354 0 382 -51 413 -29 18 -51 20 -257 20 -144 -1
-232 -5 -245 -12z m345 -393 l0 -205 -100 0 -100 0 0 198 c0 109 3 202 7 205
3 4 48 7 100 7 l93 0 0 -205z"/>
<path d="M6253 4350 c-51 -31 -55 -59 -51 -413 l3 -319 33 -29 32 -29 241 0
241 0 29 29 29 29 0 344 c0 310 -2 345 -18 364 -33 41 -52 44 -284 44 -203 0
-226 -2 -255 -20z m355 -387 l2 -203 -100 0 -100 0 0 205 0 206 98 -3 97 -3 3
-202z"/>
<path d="M7895 4361 c-11 -5 -29 -19 -40 -31 -19 -21 -20 -38 -23 -353 -3
-358 -1 -377 49 -402 42 -22 467 -22 509 0 48 25 52 57 48 412 l-3 323 -28 27
-27 28 -233 2 c-127 1 -241 -2 -252 -6z m343 -399 l2 -203 -102 3 -103 3 -3
190 c-1 104 0 195 3 203 3 9 29 12 102 10 l98 -3 3 -203z"/>
<path d="M3598 3121 l-33 -29 -3 -129 c-2 -72 1 -140 7 -155 24 -63 112 -81
160 -34 22 22 27 38 31 99 l5 72 100 0 100 0 5 -278 5 -279 28 -24 c54 -47
145 -20 162 48 3 12 5 171 3 351 l-3 329 -33 29 -32 29 -235 0 -235 0 -32 -29z"/>
<path d="M5245 3138 c-55 -30 -55 -25 -55 -396 l0 -344 29 -29 29 -29 241 0
241 0 32 29 33 29 3 329 c2 298 1 331 -15 363 -10 19 -29 40 -43 47 -33 17
-465 18 -495 1z m345 -393 l0 -205 -100 0 -100 0 0 205 0 205 100 0 100 0 0
-205z"/>
<path d="M6260 3137 c-14 -7 -33 -28 -43 -47 -16 -32 -17 -65 -15 -363 l3
-329 33 -29 32 -29 241 0 241 0 29 29 29 29 0 344 c0 372 0 368 -57 397 -32
16 -460 15 -493 -2z m350 -392 l0 -205 -100 0 -100 0 0 205 0 205 100 0 100 0
0 -205z"/>
<path d="M7868 3121 l-33 -29 -3 -329 c-2 -180 0 -339 3 -351 3 -13 18 -35 32
-48 l26 -24 242 0 c241 0 242 0 268 24 14 13 28 39 32 57 3 19 5 177 3 352
l-3 319 -33 29 -32 29 -235 0 -235 0 -32 -29z m370 -379 l2 -203 -102 3 -103
3 -3 190 c-1 104 0 195 3 203 3 9 29 12 102 10 l98 -3 3 -203z"/>
<path d="M3367 2525 c-69 -23 -161 -117 -214 -220 -104 -201 -169 -508 -194
-909 -14 -222 -8 -281 41 -392 54 -118 196 -241 320 -274 l40 -11 0 -270 c0
-293 3 -314 55 -337 44 -20 75 -14 111 22 l34 34 0 275 0 275 38 13 c169 54
304 191 348 352 31 109 11 481 -40 762 -67 368 -177 588 -336 670 -46 24 -143
29 -203 10z m160 -227 c93 -88 179 -392 219 -768 20 -189 16 -392 -10 -439
-27 -50 -95 -120 -138 -142 -140 -71 -316 -22 -395 110 -48 81 -56 133 -44
317 31 487 146 898 266 950 38 16 62 10 102 -28z"/>
<path d="M5038 1914 c-56 -30 -67 -109 -21 -156 l27 -28 173 0 173 0 0 -474 0
-474 25 -30 c14 -16 37 -33 51 -36 35 -9 91 11 107 37 9 16 13 145 17 497 l5
475 405 0 405 0 5 -475 c4 -352 8 -481 17 -497 16 -26 72 -46 107 -37 14 3 37
20 51 36 l25 30 0 474 0 474 173 0 173 0 27 28 c29 30 36 86 17 123 -28 50 1
49 -1002 49 -804 -1 -937 -3 -960 -16z"/>
<path d="M7895 1921 c-11 -5 -29 -19 -40 -31 -19 -21 -20 -38 -23 -349 -2
-179 0 -337 3 -349 3 -13 18 -35 32 -48 l26 -24 242 0 c241 0 242 0 268 24 14
13 28 39 32 57 3 19 5 177 3 351 l-3 318 -28 27 -27 28 -233 2 c-127 1 -241
-2 -252 -6z m343 -399 l2 -203 -102 3 -103 3 -3 190 c-1 104 0 195 3 203 3 9
29 12 102 10 l98 -3 3 -203z"/>
<path d="M5954 1304 c-61 -30 -72 -104 -23 -153 43 -43 95 -43 138 0 50 49 38
124 -24 154 -41 19 -52 19 -91 -1z"/>
<path d="M4455 503 c-70 -18 -89 -69 -83 -225 4 -122 20 -157 79 -171 74 -19
118 26 127 128 l5 65 1389 2 1390 3 29 33 c39 44 39 90 0 134 l-29 33 -1444 1
c-794 1 -1452 0 -1463 -3z"/>
</g>
</svg>
